# AST/ASF file generated using VICON BodyLanguage
# -----------------------------------------------
:version 1.10
:name VICON
:units
  mass 1.0
  length 0.45
  angle deg
:documentation
   .ast/.asf automatically generated from VICON data using
   VICON BodyBuilder and BodyLanguage model FoxedUp or BRILLIANT.MOD
:root
   order TX TY TZ RX RY RZ
   axis XYZ
   position 0 0 0  
   orientation 0 0 0 
:bonedata
  begin
     id 1 
     name lhipjoint
     direction 0.630082 -0.636569 0.44472 
     length 2.82754 
     axis 0 0 0  XYZ
  end
  begin
     id 2 
     name lfemur
     direction 0.34202 -0.939693 0  
     length 7.26371  
     axis 0 0 20  XYZ
    dof rx ry rz
    limits (-160.0 20.0)
           (-70.0 70.0)
           (-60.0 70.0)
  end
  begin
     id 3 
     name ltibia
     direction 0.34202 -0.939693 0   
     length 7.88616   
     axis 0 0 20   XYZ
    dof rx
    limits (-10.0 170.0)
  end
  begin
     id 4 
     name lfoot
     direction 0.0603448 -0.165796 0.984312   
     length 1.77861   
     axis -90 7.62852e-016 20   XYZ
    dof rx rz
    limits (-45.0 90.0)
           (-70.0 20.0)
  end
  begin
     id 5 
     name ltoes
     direction 1.53577e-011 -4.21876e-011 1   
     length 0.902235   
     axis -90 7.62852e-016 20   XYZ
    dof rx
    limits (-90.0 20.0)
  end
  begin
     id 6 
     name rhipjoint
     direction -0.656778 -0.61817 0.431866   
     length 2.9117  
     axis 0 0 0  XYZ 
  end
  begin
     id 7 
     name rfemur
     direction -0.34202 -0.939693 0   
     length 6.81603   
     axis 0 0 -20   XYZ
    dof rx ry rz
    limits (-160.0 20.0)
           (-70.0 70.0)
           (-70.0 60.0)
  end
  begin
     id 8 
     name rtibia
     direction -0.34202 -0.939693 0   
     length 8.05997   
     axis 0 0 -20   XYZ
    dof rx
    limits (-10.0 170.0)
 end
 begin
     id 9 
     name rfoot
     direction -0.0862404 -0.236944 0.967688   
     length 1.84899  
     axis -90 -7.62852e-016 -20   XYZ
    dof rx rz
    limits (-45.0 90.0)
           (-20.0 70.0)
  end
  begin
     id 10 
     name rtoes
     direction -1.53561e-011 -4.21798e-011 1   
     length 0.931579   
     axis -90 -7.62852e-016 -20   XYZ
    dof rx
    limits (-90.0 20.0)
  end
  begin
     id 11 
     name lowerback
     direction -0.0110203 0.991769 -0.127564   
     length 2.05686   
     axis 0 0 0   XYZ
    dof rx ry rz
    limits (-20.0 45.0)
           (-30.0 30.0)
           (-30.0 30.0)
  end
  begin
     id 12 
     name upperback
     direction 0.0109719 0.99993 -0.00432479   
     length 2.06234   
     axis 0 0 0   XYZ
    dof rx ry rz
    limits (-20.0 45.0)
           (-30.0 30.0)
           (-30.0 30.0)
  end
  begin
     id 13 
     name thorax
     direction 0.0173308 0.998351 0.0547306   
     length 2.09856   
     axis 0 0 0   XYZ
    dof rx ry rz
    limits (-20.0 45.0)
           (-30.0 30.0)
           (-30.0 30.0)
  end
  begin
     id 14 
     name lowerneck
     direction -0.0311736 0.989033 0.144366   
     length 1.98151   
     axis 0 0 0   XYZ
    dof rx ry rz
    limits (-20.0 45.0)
           (-30.0 30.0)
           (-30.0 30.0)
  end
  begin
     id 15 
     name upperneck
     direction 0.0421057 0.975772 -0.214698   
     length 2.01457   
     axis 0 0 0   XYZ
    dof rx ry rz
    limits (-20.0 45.0)
           (-30.0 30.0)
           (-30.0 30.0)
  end
  begin
     id 16
     name head
     direction 0.0136911 0.995958 -0.0887718  
     length 2.03562  
     axis 0 0 0   XYZ
    dof rx ry rz
    limits (-20.0 45.0)
           (-30.0 30.0)
           (-30.0 30.0)
  end
  begin
     id 17 
     name lclavicle
     direction 0.915335 0.396201 0.0720134  
     length 4.16217  
     axis 0 0 0   XYZ
    dof ry rz
    limits (-20.0 10.0)
           (0.0 20.0)
  end
  begin
     id 18 
     name lhumerus
     direction 1 -4.48965e-011 6.383e-018   
     length 4.93042   
     axis -180 -30 -90   XYZ
    dof rx ry rz
    limits (-60.0 90.0)
           (-90.0 90.0)
           (-90.0 90.0)
  end
  begin
     id 19
     name lradius
     direction 1 -4.48972e-011 8.8689e-027   
     length 3.68177   
     axis -180 -30 -90   XYZ
    dof rx
    limits (-10.0 170.0)
  end
  begin
     id 20
     name lwrist
     direction 1 -4.48953e-011 1.17971e-026   
     length 1.84089   
     axis -7.69454e-015 90 90   XYZ
    dof ry
    limits (-180.0 0.0)
 end
  begin
     id 21 
     name lhand
     direction 1 -4.49027e-011 2.35802e-026   
     length 0.721479   
     axis -1.50533e-014 90 90   XYZ
    dof rx rz
    limits (-90.0 90.0)
           (-45.0 45.0)
  end
  begin
     id 22 
     name lfingers
     direction 1 -4.48915e-011 4.72027e-026   
     length 0.581675   
     axis -3.01059e-014 90 90   XYZ
    dof rx
    limits (0.0 90.0)
  end
  begin
     id 23
     name lthumb
     direction 0.707107 -6.34948e-011 0.707107   
     length 0.835172   
     axis -90 45 -5.12164e-014   XYZ
    dof rx rz
    limits (-45.0 45.0)
           (-45.0 45.0)
  end
  begin
     id 24 
     name rclavicle
     direction -0.882781 0.469197 0.0234974   
     length 3.95647  
     axis 0 0 0   XYZ 
    dof ry rz
    limits (-10.0 20.0)
           (-20.0 0.0)
  end
  begin
     id 25 
     name rhumerus
     direction -1 -4.48965e-011 -1.54906e-018  
     length 5.07905   
     axis -180 30 90   XYZ
    dof rx ry rz
    limits (-90.0 60.0)
           (-90.0 90.0)
           (-90.0 90.0)
  end
  begin
     id 26 
     name rradius
     direction -1 -4.48972e-011 5.47489e-027   
     length 3.54394   
     axis -180 30 90   XYZ
    dof rx
    limits (-10.0 170.0)
  end
  begin
     id 27 
     name rwrist
     direction -1 -4.48955e-011 1.17969e-026   
     length 1.77197   
     axis -7.69454e-015 -90 -90   XYZ
    dof ry
    limits (-180.0 0.0)
  end
  begin
     id 28
     name rhand
     direction -1 -4.48982e-011 2.35888e-026   
     length 0.681156   
     axis -1.50533e-014 -90 -90   XYZ
    dof rx rz
    limits (-90.0 90.0)
           (-45.0 45.0)
  end
  begin
     id 29
     name rfingers
     direction -1 -4.48955e-011 4.71877e-026   
     length 0.549165   
     axis -3.01059e-014 -90 -90   XYZ
    dof rx
    limits (0.0 90.0)
  end
  begin
     id 30
     name rthumb
     direction -0.707107 -6.3491e-011 0.707107   
     length 0.788495   
     axis -90 -45 5.12164e-014   XYZ
    dof rx rz
    limits (-45.0 45.0)
           (-45.0 45.0)
  end
:hierarchy
  begin
    root lhipjoint rhipjoint lowerback
    lhipjoint lfemur
    lfemur ltibia
    ltibia lfoot
    lfoot ltoes
    rhipjoint rfemur
    rfemur rtibia
    rtibia rfoot
    rfoot rtoes
    lowerback upperback
    upperback thorax
    thorax lowerneck lclavicle rclavicle
    lowerneck upperneck
    upperneck head
    lclavicle lhumerus
    lhumerus lradius
    lradius lwrist
    lwrist lhand lthumb
    lhand lfingers
    rclavicle rhumerus
    rhumerus rradius
    rradius rwrist
    rwrist rhand rthumb
    rhand rfingers
  end

#!OML:ASF H:\Bending\Project 1\Capture day 1\Session 1\Subject.ASF
:FULLY-SPECIFIED
:DEGREES
191
root -10.0749 18.0194 -16.4622 -172.726 86.6427 -177.767
lowerback 3.27492 -0.575744 0.591116
upperback -3.97444 -0.576474 1.93947
thorax -5.9474 -0.240691 1.73068
lowerneck -28.7019 -4.51131 -7.01044
upperneck 32.9742 -3.98371 2.86256
head 17.076 -1.93891 1.61771
rclavicle -3.71479e-015 7.95139e-015
rhumerus 3.17992 22.2434 -81.3056
rradius 74.9351
rwrist 7.87077
rhand -25.5161 -43.7349
rfingers 7.12502
rthumb 1.01311 -73.7122
lclavicle -3.71479e-015 7.95139e-015
lhumerus -3.25882 -24.8384 89.3354
lradius 78.4611
lwrist 37.7836
lhand -40.633 25.054
lfingers 7.12502
lthumb -13.578 54.5913
rfemur 5.51421 -1.03196 15.2216
rtibia 6.36111e-015
rfoot -9.11367 -18.8619
rtoes -3.33345
lfemur -7.45668 -12.3612 -13.198
ltibia 21.4253
lfoot -21.1693 5.61245
ltoes 12.7461
192
root -10.0858 18.0237 -16.4674 -172.71 86.8263 -177.809
lowerback 3.38557 -0.525413 0.623286
upperback -3.92497 -0.50839 1.92868
thorax -5.96091 -0.209462 1.69659
lowerneck -28.8102 -4.47876 -7.01158
upperneck 32.8731 -3.9289 2.85916
head 17.045 -1.91872 1.62575
rclavicle 1.02995e-014 -3.97569e-015
rhumerus 4.49738 22.1791 -81.0159
rradius 73.4408
rwrist 7.937
rhand -25.3775 -43.7028
rfingers 7.12502
rthumb 1.147 -73.6794
lclavicle 1.02995e-014 -3.97569e-015
lhumerus -1.94229 -24.4996 88.9082
lradius 77.2291
lwrist 37.827
lhand -40.0458 24.8828
lfingers 7.12502
lthumb -13.0119 54.457
rfemur 5.37964 -0.855134 15.1806
rtibia -4.77083e-015
rfoot -9.12951 -18.8347
rtoes -2.87728
lfemur -7.50723 -12.3983 -13.2407
ltibia 21.4136
lfoot -21.203 5.85391
ltoes 12.6435
193
root -10.0967 18.0272 -16.4708 -172.275 87.0117 -177.412
lowerback 3.49752 -0.464142 0.645145
upperback -3.86004 -0.426026 1.92993
thorax -5.95894 -0.170566 1.67924
lowerneck -28.8962 -4.46821 -7.04663
upperneck 32.7666 -3.90407 2.88709
head 17.0104 -1.9101 1.64693
rclavicle 3.54085e-015 4.77083e-015
rhumerus 5.78222 22.0936 -80.697
rradius 71.9296
rwrist 8.07487
rhand -25.2638 -43.8262
rfingers 7.12502
rthumb 1.25679 -73.8022
lclavicle 3.54085e-015 4.77083e-015
lhumerus -0.482736 -24.0819 88.553
lradius 75.7583
lwrist 37.9874
lhand -39.468 24.7563
lfingers 7.12502
lthumb -12.4549 54.3652
rfemur 5.2696 -0.672304 15.1702
rtibia 1.11319e-014
rfoot -9.16546 -18.7942
rtoes -2.2808
lfemur -7.54331 -12.3491 -13.2509
ltibia 21.416
lfoot -21.2094 6.0188
ltoes 12.4183
194
root -10.1078 18.0305 -16.4721 -171.477 87.1606 -176.652
lowerback 3.60243 -0.405802 0.656176
upperback -3.78127 -0.347959 1.94482
thorax -5.93806 -0.133096 1.68212
lowerneck -28.9672 -4.47873 -7.1131
upperneck 32.6376 -3.90646 2.93999
head 16.9645 -1.91276 1.67808
rclavicle -1.2921e-014 1.82882e-014
rhumerus 7.05002 21.9857 -80.3381
rradius 70.422
rwrist 8.29131
rhand -25.1396 -44.1435
rfingers 7.12502
rthumb 1.37677 -74.1188
lclavicle -1.2921e-014 1.82882e-014
lhumerus 1.09755 -23.6184 88.2793
lradius 74.0896
lwrist 38.2329
lhand -38.9931 24.6592
lfingers 7.12502
lthumb -11.997 54.2953
rfemur 5.16742 -0.52306 15.1876
rtibia 7.95139e-015
rfoot -9.20278 -18.7469
rtoes -1.67976
lfemur -7.59685 -12.2216 -13.2237
ltibia 21.4313
lfoot -21.1731 6.07968
ltoes 12.163
195
root -10.1196 18.0339 -16.472 -170.587 87.2467 -175.814
lowerback 3.69719 -0.361421 0.655784
upperback -3.68819 -0.28935 1.96959
thorax -5.89572 -0.104662 1.70301
lowerneck -29.0364 -4.50906 -7.21118
upperneck 32.4725 -3.93424 3.01978
head 16.9036 -1.9258 1.72004
rclavicle 5.18704e-015 -2.06736e-014
rhumerus 8.31679 21.8465 -79.9534
rradius 68.9227
rwrist 8.56159
rhand -25.0012 -44.5947
rfingers 7.12502
rthumb 1.51037 -74.5691
lclavicle 5.18704e-015 -2.06736e-014
lhumerus 2.77468 -23.1615 88.0728
lradius 72.2698
lwrist 38.5038
lhand -38.7065 24.5562
lfingers 7.12502
lthumb -11.7206 54.2083
rfemur 5.05688 -0.436214 15.217
rtibia 7.95139e-015
rfoot -9.22583 -18.698
rtoes -1.18495
lfemur -7.69362 -12.0477 -13.1698
ltibia 21.4575
lfoot -21.0932 6.03801
ltoes 12
196
root -10.1326 18.0379 -16.4716 -169.96 87.2654 -175.26
lowerback 3.78791 -0.333611 0.645174
upperback -3.57996 -0.254147 1.99581
thorax -5.83453 -0.0875479 1.73291
lowerneck -29.1169 -4.55922 -7.34206
upperneck 32.2619 -3.98939 3.13517
head 16.8267 -1.94881 1.77603
rclavicle 4.14963e-015 2.70347e-014
rhumerus 9.59583 21.6615 -79.5744
rradius 67.4171
rwrist 8.84404
rhand -24.8856 -45.0555
rfingers 7.12502
rthumb 1.62201 -75.0291
lclavicle 4.14963e-015 2.70347e-014
lhumerus 4.53353 -22.7787 87.8876
lradius 70.3342
lwrist 38.7493
lhand -38.6502 24.4152
lfingers 7.12502
lthumb -11.6663 54.0704
rfemur 4.92506 -0.419319 15.2378
rtibia 1.74931e-014
rfoot -9.22691 -18.6506
rtoes -0.840066
lfemur -7.84712 -11.8635 -13.1089
ltibia 21.4929
lfoot -20.9794 5.91846
ltoes 12.0145
197
root -10.1473 18.0425 -16.472 -169.794 87.2309 -175.195
lowerback 3.88532 -0.316243 0.63343
upperback -3.45541 -0.234211 2.01129
thorax -5.75968 -0.0784736 1.75347
lowerneck -29.2167 -4.62996 -7.50187
upperneck 31.9991 -4.07707 3.2938
head 16.733 -1.9821 1.84729
rclavicle 3.49426e-016 8.74653e-015
rhumerus 10.8969 21.4122 -79.2341
rradius 65.8776
rwrist 9.09741
rhand -24.8556 -45.3865
rfingers 7.12502
rthumb 1.651 -75.3599
lclavicle 3.49426e-016 8.74653e-015
lhumerus 6.37122 -22.5397 87.6511
lradius 68.3037
lwrist 38.9563
lhand -38.8031 24.2224
lfingers 7.12502
lthumb -11.8138 53.8692
rfemur 4.7638 -0.460609 15.2351
rtibia -1.27222e-014
rfoot -9.20471 -18.6071
rtoes -0.627505
lfemur -8.05937 -11.6919 -13.0583
ltibia 21.537
lfoot -20.844 5.75518
ltoes 12.2007
198
root -10.1641 18.0477 -16.4739 -170.02 87.1633 -175.545
lowerback 4.01422 -0.29836 0.623159
upperback -3.32329 -0.214001 2.01443
thorax -5.69506 -0.0697324 1.76054
lowerneck -29.3295 -4.72061 -7.68205
upperneck 31.6851 -4.19606 3.48554
head 16.6218 -2.02554 1.92803
rclavicle 6.16854e-015 3.97569e-015
rhumerus 12.2112 21.0928 -78.9369
rradius 64.2824
rwrist 9.28944
rhand -24.9688 -45.4779
rfingers 7.12502
rthumb 1.54167 -75.4521
lclavicle 6.16854e-015 3.97569e-015
lhumerus 8.27227 -22.49 87.3053
lradius 66.2005
lwrist 39.1501
lhand -39.0804 23.9893
lfingers 7.12502
lthumb -12.0812 53.6206
rfemur 4.56918 -0.540068 15.208
rtibia 1.27222e-014
rfoot -9.1608 -18.5704
rtoes -0.498924
lfemur -8.32659 -11.5369 -13.0228
ltibia 21.5917
lfoot -20.6967 5.57641
ltoes 12.4698
199
root -10.183 18.0535 -16.4772 -170.359 87.0768 -176.035
lowerback 4.19236 -0.272601 0.630469
upperback -3.1933 -0.181962 2.00318
thorax -5.66131 -0.0561016 1.74216
lowerneck -29.445 -4.82467 -7.86053
upperneck 31.3267 -4.33846 3.68753
head 16.4927 -2.07658 2.00627
rclavicle -6.57232e-015 2.54444e-014
rhumerus 13.5232 20.7058 -78.6693
rradius 62.6302
rwrist 9.40395
rhand -25.2463 -45.2774
rfingers 7.12502
rthumb 1.27373 -75.2534
lclavicle -6.57232e-015 2.54444e-014
lhumerus 10.2122 -22.6411 86.8051
lradius 64.067
lwrist 39.3767
lhand -39.3596 23.7354
lfingers 7.12502
lthumb -12.3504 53.3506
rfemur 4.34076 -0.64169 15.1697
rtibia 2.8625e-014
rfoot -9.09599 -18.544
rtoes -0.416822
lfemur -8.64453 -11.39 -12.9926
ltibia 21.6602
lfoot -20.5409 5.39875
ltoes 12.6818
200
root -10.2037 18.06 -16.4814 -170.495 86.9745 -176.349
lowerback 4.40275 -0.240927 0.677024
upperback -3.06081 -0.139523 1.97701
thorax -5.64377 -0.0391321 1.68542
lowerneck -29.5594 -4.92813 -8.0064
upperneck 30.9297 -4.48729 3.87089
head 16.3451 -2.12895 2.06805
rclavicle -1.46604e-015 1.03368e-014
rhumerus 14.8365 20.263 -78.4033
rradius 60.9411
rwrist 9.44063
rhand -25.6004 -44.7766
rfingers 7.12502
rthumb 0.931663 -74.7543
lclavicle -1.46604e-015 1.03368e-014
lhumerus 12.1735 -22.9589 86.1271
lradius 61.9715
lwrist 39.6692
lhand -39.5208 23.468
lfingers 7.12502
lthumb -12.5058 53.0738
rfemur 4.07989 -0.759757 15.1411
rtibia -9.54166e-015
rfoot -9.01132 -18.5295
rtoes -0.366708
lfemur -9.01102 -11.2434 -12.9494
ltibia 21.7446
lfoot -20.3762 5.22833
ltoes 12.7282
201
root -10.2254 18.0674 -16.4858 -170.24 86.8521 -176.299
lowerback 4.63955 -0.212811 0.759782
upperback -2.93277 -0.0982551 1.94975
thorax -5.64598 -0.0239134 1.60738
lowerneck -29.6707 -5.0125 -8.09573
upperneck 30.5173 -4.61272 3.99897
head 16.1858 -2.17326 2.1007
rclavicle 8.69683e-015 1.82882e-014
rhumerus 16.1396 19.7962 -78.1087
rradius 59.2505
rwrist 9.41572
rhand -25.8289 -44.2595
rfingers 7.12502
rthumb 0.711045 -74.238
lclavicle 8.69683e-015 1.82882e-014
lhumerus 14.1041 -23.3634 85.3157
lradius 59.9939
lwrist 40.0173
lhand -39.4857 23.1692
lfingers 7.12502
lthumb -12.4719 52.777
rfemur 3.7881 -0.896895 15.1388
rtibia 4.77083e-015
rfoot -8.90988 -18.5245
rtoes -0.351426
lfemur -9.42479 -11.1012 -12.8774
ltibia 21.8425
lfoot -20.2025 5.06781
ltoes 12.59
